# xmcd
#
# Track frame offsets: 
#        183
#        19690
#        37665
#        55873
#        70978
#        88818
#        110083
#        124218
#        138868
#        154463
#
# Disc length: 2255 seconds
#
# Revision: 2
# Processed by: cddbd v1.5.2PL0 Copyright (c) Steve Scherf et al.
# Submitted via: ExactAudioCopy v1.1
#
DISCID=8608cd0a
DTITLE=Lynn Anderson - What She Does Best
DYEAR=1988
DGENRE=Country
TTITLE0=Under The Boardwalk
TTITLE1=As Long As The Memory Survives
TTITLE2=What She Does Best
TTITLE3=Somebody's Shoulder
TTITLE4=Martha
TTITLE5=How Many Hearts
TTITLE6=Take Me Like A Vacation
TTITLE7=It Goes Without Saying
TTITLE8=Turn The Page
TTITLE9=Odds And Ends
EXTD=Mercury\n834 625-2
EXTT0=
EXTT1=
EXTT2=
EXTT3=
EXTT4=
EXTT5=
EXTT6=
EXTT7=
EXTT8=
EXTT9=
PLAYORDER=
